<svg id="Layer_1" data-name="Layer 1" xmlns="http://www.w3.org/2000/svg" viewBox="0 0 55.78 85.37"><defs><style>.cls-1{fill:#58595b;}.cls-2{fill:#f47d3c;}.cls-2,.cls-3{stroke:#58595b;stroke-miterlimit:10;}.cls-3{fill:none;stroke-width:0.4px;}</style></defs><title>Big icon 4</title><path class="cls-1" d="M776.64,813c0.29-1.63.79-3.72,2.89-3.57,1.75,0.13,2.5,1.81,2.76,3.33,0.08,0.47.81,0.27,0.72-.2-0.34-1.92-1.45-3.86-3.62-3.91-2.37,0-3.13,2.18-3.48,4.14-0.08.47,0.64,0.67,0.72,0.2h0Z" transform="translate(-728.8 -749.54)"/><path class="cls-1" d="M774.95,813.71l9-.33a0.38,0.38,0,0,0,0-.75l-9,.33a0.38,0.38,0,0,0,0,.75h0Z" transform="translate(-728.8 -749.54)"/><path class="cls-1" d="M774.52,813.51c0.11,3.85,1.44,7,5.83,6.57,3.65-.37,4.67-3.86,4.07-7-0.09-.47-0.81-0.27-0.72.2,0.57,3-.49,6-4,6.11-3.66.13-4.38-2.85-4.47-5.85a0.38,0.38,0,0,0-.75,0h0Z" transform="translate(-728.8 -749.54)"/><path class="cls-1" d="M765.75,803a8.37,8.37,0,0,1,6.89,2.85c0.32,0.36.85-.17,0.53-0.53a9.09,9.09,0,0,0-7.42-3.06c-0.48,0-.48.78,0,0.75h0Z" transform="translate(-728.8 -749.54)"/><path class="cls-1" d="M769.26,800a4,4,0,0,1,3.4,1.66c0.28,0.39.93,0,.65-0.38a4.81,4.81,0,0,0-4-2,0.38,0.38,0,0,0,0,.75h0Z" transform="translate(-728.8 -749.54)"/><path class="cls-1" d="M771.72,797.06a1.8,1.8,0,0,1,1.43.78c0.27,0.39.92,0,.65-0.38a2.6,2.6,0,0,0-2.07-1.15,0.38,0.38,0,0,0,0,.75h0Z" transform="translate(-728.8 -749.54)"/><path class="cls-2" d="M768.36,815.19s3.45,0,3.39-1.27-0.24-6.89-5.46-6.28c0,0-4.45,1.67-4.42,6.06s-0.18,13,12.68,18.62c0,0,8,1.3,7.2-3.53s-4.74-4.54-4.74-4.54l-1.88,2.45S767.11,822,768.36,815.19Z" transform="translate(-728.8 -749.54)"/><path class="cls-3" d="M779.58,815a0.49,0.49,0,0,0-.1.74,0.51,0.51,0,0,0,.74,0,0.55,0.55,0,0,0,0-.6A0.45,0.45,0,0,0,779.58,815Z" transform="translate(-728.8 -749.54)"/><polyline class="cls-3" points="50.94 66.4 50.82 67.58 51.49 67.55 51.21 66.39"/><path class="cls-1" d="M745.72,772.78c3.73,8.31,17.45,8.87,19.42-1,0.16-.79-1-1.12-1.21-0.33-1.77,8.86-13.85,8-17.13.69-0.33-.73-1.41-0.1-1.08.63h0Z" transform="translate(-728.8 -749.54)"/><path class="cls-1" d="M771.32,767.26c-0.35,9-7.27,16.47-16.47,16.47a16.47,16.47,0,1,1,0-32.94c9.21,0,16.13,7.5,16.47,16.47a0.63,0.63,0,0,0,1.25,0c-0.37-9.64-7.79-17.72-17.72-17.72a17.72,17.72,0,1,0,0,35.44c9.93,0,17.35-8.08,17.72-17.72A0.63,0.63,0,0,0,771.32,767.26Z" transform="translate(-728.8 -749.54)"/><path class="cls-1" d="M742.92,782.73c-8,2.18-12.51,12.16-13.42,19.61-1.23,10.07-.62,21.22.21,31.37a0.64,0.64,0,0,0,.63.63l37.15,0.57a0.63,0.63,0,0,0,0-1.25l-19.57-.3-12.5-.19a19.75,19.75,0,0,0-3.89-.06c-1.13.23-1.13-.55-0.57,0.52-0.8-1.51-.24-5.17-0.28-6.81-0.18-6.69-.25-13.39-0.12-20.09,0.16-8.18,3.48-20.29,12.7-22.8a0.63,0.63,0,0,0-.33-1.21h0Z" transform="translate(-728.8 -749.54)"/><path class="cls-1" d="M766.26,783.94c8.11,2.17,11.59,12.32,12.68,19.55,0.12,0.79,1.32.46,1.21-.33-1.15-7.68-5-18.13-13.55-20.42a0.63,0.63,0,0,0-.33,1.21h0Z" transform="translate(-728.8 -749.54)"/></svg>