<svg id="Layer_1" data-name="Layer 1" xmlns="http://www.w3.org/2000/svg" viewBox="0 0 63.92 85.22"><defs><style>.cls-1{fill:#58595b;}.cls-2{fill:#f47d3c;}</style></defs><title>Big icon 1</title><path class="cls-1" d="M524.85,811.3a35.52,35.52,0,0,1,2.38-3.52c0.49-.67,1.62-3,2.32-3.11,1.66-.29,2,2.9,1.71,3.94a9.4,9.4,0,0,1-1.89,3.3c-0.39.51,0.48,1,.86,0.5a8.47,8.47,0,0,0,2.13-4.43c0.09-1.52-.43-3.38-1.86-4.1s-1.7-.29-2.48,1c-1.25,2-2.86,3.84-4,5.93a0.5,0.5,0,0,0,.86.5h0Z" transform="translate(-475.4 -747.97)"/><path class="cls-1" d="M532,814.76a7.73,7.73,0,0,0,2.77.23c0.68,0,2.8-.55,3.29,0,0.64,0.76-.16,1.9-0.78,2.24a6.84,6.84,0,0,1-1.74.4c-1.51.32-3,.55-4.57,0.72-0.63.07-.64,1.07,0,1a48.06,48.06,0,0,0,6-1c1.26-.31,2.28-0.74,2.31-2.2,0-.85-0.21-2-1.05-2.33a7.24,7.24,0,0,0-2.67.1,9,9,0,0,1-3.29-.14,0.5,0.5,0,0,0-.27,1h0Z" transform="translate(-475.4 -747.97)"/><path class="cls-1" d="M537.66,818.55c0.75,1.76-.88,3.09-2.39,3.51a13.9,13.9,0,0,1-3.81.28,0.5,0.5,0,0,0,0,1c2,0,4.35.07,6-1.25a3.38,3.38,0,0,0,1.06-4c-0.25-.59-1.11-0.08-0.86.5h0Z" transform="translate(-475.4 -747.97)"/><path class="cls-1" d="M537.48,822.59c0.92,0.27-.64,2.73-0.86,3-1.26,1.22-3,1-4.55.69-0.63-.11-0.9.85-0.27,1,2.33,0.42,4.6.47,6.11-1.65a4.06,4.06,0,0,0,.59-1.52,5.72,5.72,0,0,0,.3-0.87,1.51,1.51,0,0,0-1.06-1.53,0.5,0.5,0,0,0-.27,1h0Z" transform="translate(-475.4 -747.97)"/><path class="cls-1" d="M536.67,826.95c1,1.14-.62,2.58-1.62,3a7.24,7.24,0,0,1-2.35.4,14.74,14.74,0,0,1-4.19-.3,0.5,0.5,0,0,0-.27,1,12.89,12.89,0,0,0,7.16-.12c1.77-.7,3.47-2.92,2-4.65-0.42-.49-1.13.22-0.71,0.71h0Z" transform="translate(-475.4 -747.97)"/><path class="cls-1" d="M529.26,812.17a5,5,0,0,0-.29.72,6.69,6.69,0,0,0-.3.72,0.73,0.73,0,0,0,.38.85,5,5,0,0,0,1.55.2c0.6,0.08,1.2.17,1.81,0.23s0.64-.94,0-1-1.43-.2-2.15-0.28a1.43,1.43,0,0,0-.47,0q-0.27-.08-0.13.3l0.11-.2c0.18-.31.2-0.69,0.36-1a0.5,0.5,0,0,0-.86-0.5h0Z" transform="translate(-475.4 -747.97)"/><path class="cls-2" d="M515.12,817.75l-3.95,0a1.65,1.65,0,0,0-1.15.3,1.54,1.54,0,0,0-.33,1.15q0,4.25.2,8.49a2.21,2.21,0,0,0,.14.78,2,2,0,0,0,2.11.85,6,6,0,0,1,2.43,0" transform="translate(-475.4 -747.97)"/><path class="cls-1" d="M515.12,817.25c-1.36,0-4.26-.6-5.4.43s-0.53,3.64-.5,4.94c0,1.66-.43,4.6.38,6.13,0.93,1.75,3.36.81,4.84,1,0.63,0.1.9-.87,0.27-1a4.77,4.77,0,0,0-1.33-.11q-0.62,0-1.23.13l-1.79-2c-0.44-1-.12-3.13-0.14-4.25s-0.42-3,.47-3.87,3.23-.49,4.43-0.5a0.5,0.5,0,0,0,0-1h0Z" transform="translate(-475.4 -747.97)"/><path class="cls-1" d="M512.21,826.95a0.5,0.5,0,0,0,0-1,0.5,0.5,0,0,0,0,1h0Z" transform="translate(-475.4 -747.97)"/><path class="cls-1" d="M523.84,811c-1.37,3.67-3.39,4.75-6.91,5.85-0.78.24-1.82,0.21-2.35,1-0.69,1-.34,2.73-0.31,3.8l0.18,7.37a0.52,0.52,0,0,0,.37.48c4.38,1.43,8.86-.64,13.3,1.49,0.58,0.28,1.09-.58.5-0.86a15.35,15.35,0,0,0-6.8-1.37c-1.35,0-3.26.47-4.55,0.15-2.63-.66-1.92-3.85-2-5.92-0.07-2.61-.27-4.09,2.5-5.28,1.22-.52,2.35-0.54,3.49-1.32a10,10,0,0,0,3.5-5.11c0.22-.6-0.74-0.86-1-0.27h0Z" transform="translate(-475.4 -747.97)"/><path class="cls-1" d="M492.12,771.2c3.73,8.31,17.45,8.87,19.42-1,0.16-.79-1-1.12-1.21-0.33-1.77,8.86-13.85,8-17.13.69-0.33-.73-1.41-0.1-1.08.63h0Z" transform="translate(-475.4 -747.97)"/><path class="cls-1" d="M517.72,765.69c-0.35,9-7.27,16.47-16.47,16.47a16.47,16.47,0,0,1,0-32.94c9.21,0,16.13,7.5,16.47,16.47a0.63,0.63,0,0,0,1.25,0c-0.37-9.64-7.79-17.72-17.72-17.72a17.72,17.72,0,0,0,0,35.44c9.93,0,17.35-8.08,17.72-17.72A0.63,0.63,0,0,0,517.72,765.69Z" transform="translate(-475.4 -747.97)"/><path class="cls-1" d="M489.32,781.16c-8.22,2.23-12.92,12.76-13.55,20.42-0.82,10-.17,20.91.81,31a0.64,0.64,0,0,0,.63.63l37.16,0a0.63,0.63,0,0,0,0-1.25H482.28a17.63,17.63,0,0,0-3.89,0c-1.23.31-1.06-.49-0.58,0.48-0.9-1.81-.34-5.85-0.42-7.74-0.27-6.88-.55-13.79-0.37-20.68,0.21-7.86,3.9-19.25,12.63-21.62a0.63,0.63,0,0,0-.33-1.21h0Z" transform="translate(-475.4 -747.97)"/><path class="cls-1" d="M512.66,782.37c8.11,2.17,11.59,12.32,12.68,19.55,0.12,0.79,1.32.46,1.21-.33-1.15-7.68-5-18.13-13.55-20.42a0.63,0.63,0,0,0-.33,1.21h0Z" transform="translate(-475.4 -747.97)"/></svg>