<svg id="Layer_1" data-name="Layer 1" xmlns="http://www.w3.org/2000/svg" viewBox="0 0 65.96 85.19"><defs><style>.cls-1{fill:#58595b;}.cls-2{fill:#e3793a;}.cls-3{fill:#f47d3c;stroke:#58595b;stroke-miterlimit:10;stroke-width:0.75px;}.cls-4{font-size:4.44px;fill:#fff;font-family:Noto Sans;font-weight:700;}</style></defs><title>Big icon 2</title><path class="cls-1" d="M576.66,770.39c3.73,8.31,17.45,8.87,19.42-1,0.16-.79-1-1.12-1.21-0.33-1.77,8.86-13.85,8-17.13.69-0.33-.73-1.41-0.1-1.08.63h0Z" transform="translate(-559.79 -747.16)"/><path class="cls-1" d="M602.26,764.88c-0.35,9-7.27,16.47-16.47,16.47a16.47,16.47,0,0,1,0-32.94c9.21,0,16.13,7.5,16.47,16.47a0.63,0.63,0,0,0,1.25,0c-0.37-9.64-7.79-17.72-17.72-17.72a17.72,17.72,0,0,0,0,35.44c9.93,0,17.35-8.08,17.72-17.72A0.63,0.63,0,0,0,602.26,764.88Z" transform="translate(-559.79 -747.16)"/><path class="cls-1" d="M573.6,780.41c-8,2.26-12.39,12.28-13.23,19.73-1.14,10.08-.41,21.23.51,31.37a0.64,0.64,0,0,0,.63.63l37.16,0.21a0.63,0.63,0,0,0,0-1.25L579.09,831l-12.51-.07a19.61,19.61,0,0,0-3.89,0c-1.12.25-1.16-.54-0.57,0.53-0.81-1.49-.29-5.17-0.35-6.8-0.24-6.69-.38-13.39-0.31-20.08,0.08-8.19,3.28-20.33,12.47-22.92a0.63,0.63,0,0,0-.33-1.21h0Z" transform="translate(-559.79 -747.16)"/><path class="cls-1" d="M597.19,781.56c8.11,2.17,11.59,12.32,12.68,19.55,0.12,0.79,1.32.46,1.21-.33-1.15-7.68-5-18.13-13.55-20.42a0.63,0.63,0,0,0-.33,1.21h0Z" transform="translate(-559.79 -747.16)"/><path class="cls-1" d="M616.6,809.87c-2.11-1.8-4.45-3.49-7.36-2.91-0.47.09-.27,0.82,0.2,0.72,2.62-.52,4.75,1.12,6.63,2.72,0.37,0.31.9-.22,0.53-0.53h0Z" transform="translate(-559.79 -747.16)"/><path class="cls-1" d="M603.66,826.83c5.71,3.68,13.82,1.56,16.42-4.88,0.18-.45-0.54-0.64-0.72-0.2-2.44,6-10.07,7.81-15.32,4.43a0.38,0.38,0,0,0-.38.65h0Z" transform="translate(-559.79 -747.16)"/><path class="cls-1" d="M609.33,806.94a10.39,10.39,0,0,0-9.3,7.53,0.38,0.38,0,0,0,.72.2,9.63,9.63,0,0,1,8.57-7,0.38,0.38,0,0,0,0-.75h0Z" transform="translate(-559.79 -747.16)"/><path class="cls-1" d="M619.13,808.83c-2.89-2.55-6.07-5.33-10.19-4.54-0.47.09-.27,0.81,0.2,0.72,3.81-.73,6.82,2,9.46,4.35,0.36,0.32.89-.21,0.53-0.53h0Z" transform="translate(-559.79 -747.16)"/><path class="cls-1" d="M600.41,827.6c7.33,6.49,21.1,4.09,22.68-6.69,0.07-.47-0.65-0.68-0.72-0.2-1.49,10.21-14.5,12.5-21.42,6.36-0.36-.32-0.89.21-0.53,0.53h0Z" transform="translate(-559.79 -747.16)"/><path class="cls-1" d="M609,804.27c-6.26.29-11.07,5.28-12,11.35-0.07.47,0.65,0.68,0.72,0.2,0.86-5.72,5.32-10.52,11.26-10.8a0.38,0.38,0,0,0,0-.75h0Z" transform="translate(-559.79 -747.16)"/><polygon class="cls-2" points="40.64 66.77 40.2 66.43 39.67 66.61 39.85 66.08 39.51 65.63 40.07 65.64 40.39 65.17 40.56 65.71 41.09 65.88 40.63 66.2 40.64 66.77"/><polygon class="cls-2" points="45.12 81.97 44.7 81.63 44.2 81.81 44.37 81.28 44.06 80.83 44.58 80.83 44.88 80.37 45.04 80.91 45.54 81.08 45.11 81.41 45.12 81.97"/><polygon class="cls-2" points="50.3 83.18 49.88 82.84 49.38 83.03 49.55 82.49 49.24 82.04 49.76 82.05 50.06 81.58 50.22 82.12 50.72 82.29 50.29 82.61 50.3 83.18"/><polygon class="cls-2" points="55.24 82.26 54.82 81.93 54.32 82.11 54.49 81.58 54.17 81.12 54.7 81.13 55 80.67 55.15 81.21 55.65 81.37 55.23 81.7 55.24 82.26"/><polygon class="cls-2" points="59.51 79.42 59.09 79.08 58.6 79.26 58.76 78.73 58.45 78.28 58.97 78.28 59.27 77.82 59.43 78.36 59.93 78.53 59.5 78.85 59.51 79.42"/><polygon class="cls-2" points="61.78 75.6 61.36 75.26 60.86 75.44 61.03 74.91 60.72 74.46 61.24 74.46 61.54 74 61.7 74.54 62.2 74.71 61.77 75.03 61.78 75.6"/><polygon class="cls-2" points="43.87 61.77 43.45 61.44 42.96 61.62 43.13 61.08 42.81 60.63 43.34 60.64 43.64 60.18 43.79 60.72 44.29 60.88 43.87 61.21 43.87 61.77"/><polygon class="cls-2" points="48.82 59.62 48.4 59.29 47.91 59.47 48.07 58.94 47.76 58.49 48.28 58.49 48.58 58.03 48.74 58.57 49.24 58.73 48.81 59.06 48.82 59.62"/><polygon class="cls-2" points="53.75 60.15 53.33 59.82 52.84 60 53 59.47 52.69 59.02 53.21 59.02 53.51 58.56 53.67 59.1 54.17 59.27 53.74 59.59 53.75 60.15"/><polygon class="cls-2" points="57.6 62.56 57.18 62.23 56.69 62.41 56.86 61.88 56.54 61.43 57.06 61.44 57.37 60.98 57.52 61.51 58.02 61.68 57.59 62 57.6 62.56"/><path class="cls-3" d="M623.59,820.26l-26,8a2.44,2.44,0,0,1-3-1.82l-1.65-6.26a2.69,2.69,0,0,1,1.69-3.27l26-8a2.44,2.44,0,0,1,3,1.82l1.65,6.26A2.69,2.69,0,0,1,623.59,820.26Z" transform="translate(-559.79 -747.16)"/><text class="cls-4" transform="matrix(0.92, -0.29, 0.26, 0.97, 37.57, 76.84)">Gua<tspan x="8.82" y="0">r</tspan><tspan x="10.8" y="0">anteed</tspan></text></svg>